<svg xmlns="http://www.w3.org/2000/svg" width="1110" height="868" viewBox="0 0 1110 868" role="img" aria-labelledby="title desc">
  <title id="title">Generative Pipeline 03 Outcome placeholder slide</title>
  <desc id="desc">Placeholder slide sized 1110 by 868 for the overview story deck.</desc>
  <defs>
    <linearGradient id="bg" x1="0" y1="0" x2="1" y2="1">
      <stop offset="0%" stop-color="#f7f9fd"/>
      <stop offset="100%" stop-color="#e8eefc"/>
    </linearGradient>
    <linearGradient id="accent" x1="0" y1="0" x2="1" y2="0">
      <stop offset="0%" stop-color="#346dd0"/>
      <stop offset="100%" stop-color="#7ea6ff"/>
    </linearGradient>
  </defs>
  <rect width="1110" height="868" rx="30" fill="url(#bg)"/>
  <rect width="1110" height="6" rx="30" fill="url(#accent)"/>
  <rect x="44" y="38" width="192" height="32" rx="16" fill="#ffffff" fill-opacity=".96"/>
  <rect x="246" y="38" width="136" height="32" rx="16" fill="#ffffff" fill-opacity=".88"/>
  <text x="66" y="59" fill="#21345a" font-family="Arial, sans-serif" font-size="15" font-weight="700">Generative Pipeline</text>
  <text x="280" y="59" fill="#4d5e82" font-family="Arial, sans-serif" font-size="15" font-weight="700">03 Outcome</text>
  <text x="44" y="130" fill="#192a4a" font-family="Arial, sans-serif" font-size="44" font-weight="700">Replace this slot with your exported slide</text>
  <text x="44" y="170" fill="#596b8c" font-family="Arial, sans-serif" font-size="22">Recommended canvas: 1110 x 868 px</text>
  <rect x="44" y="214" width="676" height="424" rx="28" fill="#172554" fill-opacity=".09"/>
  <text x="82" y="432" fill="#2a3e66" font-family="Arial, sans-serif" font-size="26" font-weight="700">Outcome image / production board</text>
  <rect x="748" y="214" width="152" height="144" rx="22" fill="#ffffff" fill-opacity=".9"/>
  <rect x="914" y="214" width="152" height="144" rx="22" fill="#ffffff" fill-opacity=".9"/>
  <rect x="748" y="372" width="152" height="144" rx="22" fill="#ffffff" fill-opacity=".86"/>
  <rect x="914" y="372" width="152" height="144" rx="22" fill="#ffffff" fill-opacity=".86"/>
  <rect x="748" y="534" width="318" height="104" rx="22" fill="#ffffff" fill-opacity=".82"/>
  <text x="782" y="272" fill="#42547b" font-family="Arial, sans-serif" font-size="15" font-weight="700">KPI 01</text>
  <text x="948" y="272" fill="#42547b" font-family="Arial, sans-serif" font-size="15" font-weight="700">KPI 02</text>
  <text x="782" y="430" fill="#42547b" font-family="Arial, sans-serif" font-size="15" font-weight="700">KPI 03</text>
  <text x="948" y="430" fill="#42547b" font-family="Arial, sans-serif" font-size="15" font-weight="700">KPI 04</text>
  <text x="782" y="592" fill="#42547b" font-family="Arial, sans-serif" font-size="15" font-weight="700">Final hiring takeaway line</text>
  <rect x="44" y="666" width="1022" height="158" rx="24" fill="#ffffff" fill-opacity=".84"/>
  <text x="74" y="720" fill="#30446d" font-family="Arial, sans-serif" font-size="18" font-weight="700">File to replace</text>
  <text x="74" y="754" fill="#617292" font-family="Arial, sans-serif" font-size="24">generative-pipeline-03-outcome.svg</text>
  <text x="74" y="792" fill="#617292" font-family="Arial, sans-serif" font-size="18">Export a full-width slide image and overwrite this file.</text>
</svg>
