<svg xmlns="http://www.w3.org/2000/svg" width="1110" height="868" viewBox="0 0 1110 868" role="img" aria-labelledby="title desc">
  <title id="title">Obsidian RAG 01 Problem placeholder slide</title>
  <desc id="desc">Placeholder slide sized 1110 by 868 for the overview story deck.</desc>
  <defs>
    <linearGradient id="bg" x1="0" y1="0" x2="1" y2="1">
      <stop offset="0%" stop-color="#f7fbfd"/>
      <stop offset="100%" stop-color="#e8f4f5"/>
    </linearGradient>
    <linearGradient id="accent" x1="0" y1="0" x2="1" y2="0">
      <stop offset="0%" stop-color="#0e7c86"/>
      <stop offset="100%" stop-color="#66c3c0"/>
    </linearGradient>
  </defs>
  <rect width="1110" height="868" rx="30" fill="url(#bg)"/>
  <rect width="1110" height="6" rx="30" fill="url(#accent)"/>
  <rect x="44" y="38" width="142" height="32" rx="16" fill="#ffffff" fill-opacity=".96"/>
  <rect x="196" y="38" width="126" height="32" rx="16" fill="#ffffff" fill-opacity=".88"/>
  <text x="66" y="59" fill="#16313c" font-family="Arial, sans-serif" font-size="15" font-weight="700">Obsidian RAG</text>
  <text x="231" y="59" fill="#3e5963" font-family="Arial, sans-serif" font-size="15" font-weight="700">01 Problem</text>
  <text x="44" y="130" fill="#12313b" font-family="Arial, sans-serif" font-size="44" font-weight="700">Replace this slot with your exported slide</text>
  <text x="44" y="170" fill="#4f6b75" font-family="Arial, sans-serif" font-size="22">Recommended canvas: 1110 x 868 px</text>
  <rect x="44" y="214" width="676" height="424" rx="28" fill="#0f172a" fill-opacity=".09"/>
  <text x="82" y="432" fill="#21404c" font-family="Arial, sans-serif" font-size="26" font-weight="700">Hero visual / chart / diagram</text>
  <rect x="748" y="214" width="318" height="156" rx="24" fill="#ffffff" fill-opacity=".9"/>
  <rect x="748" y="388" width="152" height="120" rx="22" fill="#ffffff" fill-opacity=".86"/>
  <rect x="914" y="388" width="152" height="120" rx="22" fill="#ffffff" fill-opacity=".86"/>
  <rect x="748" y="522" width="152" height="116" rx="22" fill="#ffffff" fill-opacity=".82"/>
  <rect x="914" y="522" width="152" height="116" rx="22" fill="#ffffff" fill-opacity=".82"/>
  <text x="778" y="266" fill="#274650" font-family="Arial, sans-serif" font-size="16" font-weight="700">Keep the whole slide</text>
  <text x="778" y="291" fill="#56717a" font-family="Arial, sans-serif" font-size="15">inside the image file.</text>
  <text x="778" y="316" fill="#56717a" font-family="Arial, sans-serif" font-size="15">No extra HTML text is needed.</text>
  <text x="778" y="438" fill="#34515b" font-family="Arial, sans-serif" font-size="15" font-weight="700">Evidence A</text>
  <text x="944" y="438" fill="#34515b" font-family="Arial, sans-serif" font-size="15" font-weight="700">Evidence B</text>
  <text x="778" y="572" fill="#34515b" font-family="Arial, sans-serif" font-size="15" font-weight="700">Evidence C</text>
  <text x="944" y="572" fill="#34515b" font-family="Arial, sans-serif" font-size="15" font-weight="700">Pitch line</text>
  <rect x="44" y="666" width="1022" height="158" rx="24" fill="#ffffff" fill-opacity=".84"/>
  <text x="74" y="720" fill="#24424e" font-family="Arial, sans-serif" font-size="18" font-weight="700">File to replace</text>
  <text x="74" y="754" fill="#516d77" font-family="Arial, sans-serif" font-size="24">obsidian-rag-01-problem.svg</text>
  <text x="74" y="792" fill="#516d77" font-family="Arial, sans-serif" font-size="18">Export a full-width slide image and overwrite this file.</text>
</svg>
