<svg xmlns="http://www.w3.org/2000/svg" viewBox="0 0 1200 630" role="img" aria-labelledby="title desc">
  <title id="title">Beyond RAG</title>
  <desc id="desc">Teaser image for the Beyond RAG research note.</desc>
  <defs>
    <linearGradient id="bg" x1="0%" y1="0%" x2="100%" y2="100%">
      <stop offset="0%" stop-color="#08111d" />
      <stop offset="55%" stop-color="#10324b" />
      <stop offset="100%" stop-color="#157a7f" />
    </linearGradient>
  </defs>
  <rect width="1200" height="630" fill="url(#bg)" />
  <rect x="72" y="72" width="1056" height="486" rx="34" fill="#08111d" fill-opacity="0.28" stroke="#d7eef8" stroke-opacity="0.14" />
  <g opacity="0.22">
    <rect x="746" y="142" width="278" height="60" rx="16" fill="#d7eef8" />
    <rect x="746" y="230" width="318" height="60" rx="16" fill="#d7eef8" />
    <rect x="746" y="318" width="244" height="60" rx="16" fill="#d7eef8" />
    <rect x="746" y="406" width="288" height="60" rx="16" fill="#d7eef8" />
    <path d="M660 172 H722" stroke="#d7eef8" stroke-width="8" />
    <path d="M660 260 H722" stroke="#d7eef8" stroke-width="8" />
    <path d="M660 348 H722" stroke="#d7eef8" stroke-width="8" />
    <path d="M660 436 H722" stroke="#d7eef8" stroke-width="8" />
    <circle cx="626" cy="172" r="18" fill="#d7eef8" />
    <circle cx="626" cy="260" r="18" fill="#d7eef8" />
    <circle cx="626" cy="348" r="18" fill="#d7eef8" />
    <circle cx="626" cy="436" r="18" fill="#d7eef8" />
  </g>
  <text x="108" y="170" fill="#80d9de" font-family="'Segoe UI', Arial, sans-serif" font-size="28" letter-spacing="3">RESEARCH NOTE</text>
  <text x="108" y="260" fill="#f7fbff" font-family="'Segoe UI Semibold', Arial, sans-serif" font-size="78">Beyond RAG</text>
  <text x="108" y="332" fill="#d5e8f2" font-family="'Segoe UI', Arial, sans-serif" font-size="34">From retrieval pipelines to task-aware memory</text>
  <rect x="108" y="392" width="382" height="96" rx="24" fill="#071420" fill-opacity="0.72" />
  <text x="144" y="430" fill="#80d9de" font-family="'Segoe UI', Arial, sans-serif" font-size="22">Focus</text>
  <text x="144" y="468" fill="#f7fbff" font-family="'Segoe UI Semibold', Arial, sans-serif" font-size="28">Retrieval limits, compressed KV cache, memory</text>
</svg>
